<svg width="430" height="430" viewBox="0 0 430 430" fill="none" xmlns="http://www.w3.org/2000/svg">
<path d="M317.6 158.7L336.6 139.7C338.9 137.4 338.9 133.6 336.6 131.2C334.3 128.9 330.5 128.9 328.1 131.2L309.1 150.2L290.1 131.2C287.8 128.9 284 128.9 281.6 131.2C279.3 133.5 279.3 137.3 281.6 139.7L300.6 158.7L281.6 177.7C279.3 180 279.3 183.8 281.6 186.2C282.8 187.4 284.3 188 285.8 188C287.3 188 288.9 187.4 290 186.2L309 167.2L328 186.2C329.2 187.4 330.7 188 332.2 188C333.7 188 335.3 187.4 336.4 186.2C338.7 183.9 338.7 180.1 336.4 177.7L317.6 158.7Z" fill="#ffce3a"/>
<path d="M309.2 231.4C269.1 231.4 236.5 198.8 236.5 158.7C236.5 118.6 269.1 86 309.2 86C349.3 86 381.9 118.6 381.9 158.7C381.9 198.8 349.2 231.4 309.2 231.4ZM309.2 98C275.7 98 248.5 125.2 248.5 158.7C248.5 192.2 275.7 219.4 309.2 219.4C342.7 219.4 369.9 192.2 369.9 158.7C369.9 125.2 342.6 98 309.2 98Z" fill="#121331"/>
<path d="M105.3 189.3C103.7 189.3 102.2 188.7 101.1 187.5L84.7001 171.1C82.4001 168.8 82.4001 165 84.7001 162.6C87.0001 160.3 90.8001 160.3 93.2001 162.6L105.4 174.8L150.4 129.8C152.7 127.5 156.5 127.5 158.9 129.8C161.2 132.1 161.2 135.9 158.9 138.3L109.7 187.5C108.4 188.7 106.9 189.3 105.3 189.3Z" fill="#ffce3a"/>
<path d="M121.7 231.4C81.6 231.4 49 198.8 49 158.7C49 118.6 81.6 86 121.7 86C161.8 86 194.4 118.6 194.4 158.7C194.4 198.8 161.8 231.4 121.7 231.4ZM121.7 98C88.2 98 61 125.2 61 158.7C61 192.2 88.2 219.4 121.7 219.4C155.2 219.4 182.4 192.2 182.4 158.7C182.4 125.2 155.2 98 121.7 98Z" fill="#121331"/>
<path d="M178.1 293.4H91.8999C88.5999 293.4 85.8999 290.7 85.8999 287.4C85.8999 284.1 88.5999 281.4 91.8999 281.4H178.1C181.4 281.4 184.1 284.1 184.1 287.4C184.1 290.7 181.4 293.4 178.1 293.4Z" fill="#121331"/>
<path d="M65.9998 293.4H65.2998C61.9998 293.4 59.2998 290.7 59.2998 287.4C59.2998 284.1 61.9998 281.4 65.2998 281.4H65.9998C69.2998 281.4 71.9998 284.1 71.9998 287.4C71.9998 290.7 69.2998 293.4 65.9998 293.4Z" fill="#121331"/>
<path d="M178.1 344.6H91.8999C88.5999 344.6 85.8999 341.9 85.8999 338.6C85.8999 335.3 88.5999 332.6 91.8999 332.6H178.1C181.4 332.6 184.1 335.3 184.1 338.6C184.1 341.9 181.4 344.6 178.1 344.6Z" fill="#121331"/>
<path d="M65.9998 344.6H65.2998C61.9998 344.6 59.2998 341.9 59.2998 338.6C59.2998 335.3 61.9998 332.6 65.2998 332.6H65.9998C69.2998 332.6 71.9998 335.3 71.9998 338.6C71.9998 341.9 69.2998 344.6 65.9998 344.6Z" fill="#121331"/>
<path d="M365.5 293.4H279.3C276 293.4 273.3 290.7 273.3 287.4C273.3 284.1 276 281.4 279.3 281.4H365.5C368.8 281.4 371.5 284.1 371.5 287.4C371.5 290.7 368.9 293.4 365.5 293.4Z" fill="#121331"/>
<path d="M253.5 293.4H252.8C249.5 293.4 246.8 290.7 246.8 287.4C246.8 284.1 249.5 281.4 252.8 281.4H253.5C256.8 281.4 259.5 284.1 259.5 287.4C259.5 290.7 256.8 293.4 253.5 293.4Z" fill="#121331"/>
<path d="M365.5 344.6H279.3C276 344.6 273.3 341.9 273.3 338.6C273.3 335.3 276 332.6 279.3 332.6H365.5C368.8 332.6 371.5 335.3 371.5 338.6C371.5 341.9 368.9 344.6 365.5 344.6Z" fill="#121331"/>
<path d="M253.5 344.6H252.8C249.5 344.6 246.8 341.9 246.8 338.6C246.8 335.3 249.5 332.6 252.8 332.6H253.5C256.8 332.6 259.5 335.3 259.5 338.6C259.5 341.9 256.8 344.6 253.5 344.6Z" fill="#121331"/>
</svg>
