<svg width="430" height="430" viewBox="0 0 430 430" fill="none" xmlns="http://www.w3.org/2000/svg">
<path fill-rule="evenodd" clip-rule="evenodd" d="M209 60.88H87.5698V369.12H302.4V229.63C302.4 226.316 305.086 223.63 308.4 223.63C311.714 223.63 314.4 226.316 314.4 229.63V375.12C314.4 378.434 311.714 381.12 308.4 381.12H81.5698C78.2561 381.12 75.5698 378.434 75.5698 375.12V54.88C75.5698 51.5663 78.2561 48.88 81.5698 48.88H214.952C215.065 48.8791 215.178 48.8814 215.29 48.8869C216.553 48.9471 217.712 49.3972 218.652 50.1195C218.858 50.2777 219.056 50.4505 219.243 50.6376L312.643 144.048C312.789 144.194 312.927 144.347 313.055 144.505C313.858 145.492 314.315 146.695 314.389 147.932C314.398 148.07 314.401 148.209 314.4 148.348V173.04C314.4 176.354 311.714 179.04 308.4 179.04C305.086 179.04 302.4 176.354 302.4 173.04V154.29H215C211.686 154.29 209 151.604 209 148.29V60.88ZM221 142.29V69.3664L293.916 142.29H221Z" fill="#121331"/>
<path fill-rule="evenodd" clip-rule="evenodd" d="M343.504 147.359L354.11 136.76C355.178 135.694 356.626 135.096 358.135 135.096C359.644 135.096 361.091 135.694 362.16 136.76L373 147.58C374.05 148.646 374.639 150.083 374.639 151.58C374.639 153.077 374.05 154.514 373 155.58L362.373 166.228L367.082 170.937C368.208 172.063 368.84 173.589 368.84 175.181C368.84 176.772 368.207 178.298 367.082 179.423L225.522 320.933C224.604 321.851 223.414 322.446 222.129 322.63L189.129 327.35C187.26 327.617 185.373 326.988 184.037 325.653C182.702 324.317 182.073 322.43 182.34 320.56L187.06 287.56C187.244 286.275 187.84 285.085 188.758 284.167L330.308 142.647C332.651 140.304 336.45 140.304 338.792 142.647L343.504 147.359ZM195.353 314.337L198.656 291.239L334.549 155.375L354.354 175.179L218.452 311.033L195.353 314.337Z" fill="#ffce3a"/>
</svg>
